<svg width="80" height="80" viewBox="0 0 80 80" fill="white" xmlns="http://www.w3.org/2000/svg"><path d="M8.29103 37.4842C8.25137 38.0261 8.03855 38.4605 7.65257 38.7874C7.26659 39.1143 6.80951 39.2584 6.28133 39.2198C5.74972 39.1809 5.3185 38.9717 4.98766 38.5924C4.6534 38.2127 4.50609 37.752 4.54576 37.2101C4.5696 36.8843 4.66874 36.5898 4.84316 36.3267C5.0144 36.06 5.236 35.8589 5.50795 35.7237L5.81812 36.3619C5.6504 36.4392 5.51593 36.557 5.4147 36.7151C5.31005 36.8729 5.25019 37.0547 5.23513 37.2605C5.20953 37.6104 5.29857 37.9014 5.50226 38.1335C5.7062 38.3622 5.98309 38.4894 6.33292 38.515C6.67932 38.5403 6.97006 38.4547 7.20512 38.2581C7.44044 38.0581 7.5709 37.7832 7.59651 37.4334C7.61157 37.2276 7.58054 37.0391 7.50341 36.868C7.42311 36.6931 7.30721 36.5571 7.15572 36.4598L7.55551 35.8735C7.80487 36.047 7.99668 36.2765 8.13094 36.5622C8.26176 36.8476 8.31513 37.1549 8.29103 37.4842Z" fill="white"/><path d="M8.70574 31.7097C8.97893 32.144 9.0587 32.6163 8.94504 33.1265C8.83139 33.6367 8.55871 34.0305 8.127 34.3078C7.69269 34.5809 7.21875 34.6603 6.70518 34.5459C6.19162 34.4315 5.79787 34.1589 5.52393 33.7279C5.24738 33.2928 5.16594 32.8202 5.27959 32.31C5.39325 31.7998 5.6676 31.4064 6.10267 31.1299C6.53437 30.8526 7.00701 30.7711 7.52057 30.8855C8.03414 30.9999 8.4292 31.2747 8.70574 31.7097ZM7.76251 33.7139C8.02594 33.5436 8.19354 33.2973 8.26532 32.9751C8.3371 32.6529 8.28988 32.3587 8.12366 32.0927C7.95408 31.8259 7.70146 31.6551 7.3658 31.5803C7.03013 31.5056 6.72891 31.553 6.46212 31.7226C6.19534 31.8921 6.02606 32.138 5.95428 32.4603C5.8825 32.7825 5.93139 33.077 6.10097 33.3438C6.27055 33.6106 6.52318 33.7814 6.85884 33.8561C7.1945 33.9309 7.49573 33.8835 7.76251 33.7139Z" fill="white"/><path d="M7.13346 26.6175L7.38776 25.9526L10.7604 27.2426L10.5669 27.7484L7.95195 28.4052L10.0141 29.1938L9.75976 29.8587L6.38716 28.5688L6.58065 28.0629L9.19075 27.4044L7.13346 26.6175Z" fill="white"/><path d="M10.242 21.9624L9.53511 23.222L10.2818 23.641L10.9685 22.4175L11.5623 22.7507L10.8756 23.9743L12.0902 24.6559L11.7418 25.2767L8.59293 23.5095L9.64821 21.6292L10.242 21.9624Z" fill="white"/><path d="M14.0527 20.4237L14.9827 19.2193L15.5216 19.6355L14.1565 21.4033L11.2986 19.1965L12.6479 17.449L13.1868 17.8652L12.2726 19.0492L12.8809 19.5189L13.7164 18.437L14.2471 18.8468L13.4117 19.9288L14.0527 20.4237Z" fill="white"/><path d="M18.3982 16.6744L17.0045 16.2769L16.6146 16.6528L17.4846 17.5552L16.9722 18.0493L14.466 15.4498L15.5057 14.4473C15.7459 14.2158 16.0313 14.103 16.3619 14.1091C16.6926 14.1151 16.9725 14.237 17.2016 14.4746C17.3568 14.6356 17.4554 14.8295 17.4974 15.0564C17.5371 15.2809 17.5149 15.5006 17.4307 15.7155L18.9515 16.141L18.3982 16.6744ZM15.4403 15.4348L16.1814 16.2035L16.7087 15.6951C16.8053 15.602 16.8524 15.4849 16.8501 15.3438C16.8455 15.2002 16.7918 15.0752 16.6892 14.9687C16.5865 14.8623 16.4647 14.8053 16.3238 14.7979C16.1829 14.7904 16.0642 14.8333 15.9676 14.9264L15.4403 15.4348Z" fill="white"/><path d="M19.0283 11.5336L19.6073 11.1194L21.7083 14.0561L21.1293 14.4703L19.0283 11.5336Z" fill="white"/><path d="M24.3134 8.3663L24.9465 8.04081L26.5976 11.2521L26.1159 11.4998L23.7301 10.2439L24.7396 12.2073L24.1065 12.5328L22.4555 9.32154L22.9372 9.07388L25.3206 10.3252L24.3134 8.3663Z" fill="white"/><path d="M29.6827 6.27257L29.9025 6.917L28.9798 7.23179L29.9258 10.0048L29.2521 10.2347L28.3061 7.46164L27.3882 7.77476L27.1684 7.13032L29.6827 6.27257Z" fill="white"/><path d="M34.7868 8.84424L34.4557 8.24445L33.0405 8.50586L32.9455 9.18435L32.1897 9.32396L32.7766 5.54361L33.644 5.38339L35.5477 8.70369L34.7868 8.84424ZM33.1428 7.81027L34.1167 7.63037L33.3618 6.26957L33.1428 7.81027Z" fill="white"/><path d="M42.952 7.98621L44.4646 8.15265L44.3901 8.82947L42.17 8.58518L42.5649 4.99598L44.7594 5.23745L44.685 5.91427L43.198 5.75066L43.1139 6.51464L44.4727 6.66415L44.3994 7.33071L43.0406 7.18121L42.952 7.98621Z" fill="white"/><path d="M47.5193 9.58254C47.13 9.48077 46.8393 9.28748 46.6472 9.00265C46.455 8.71783 46.4073 8.39076 46.5038 8.02145L47.1183 5.67086L47.802 5.84961L47.2019 8.1453C47.154 8.32829 47.1678 8.48651 47.2431 8.61994C47.3217 8.75424 47.4725 8.85053 47.6954 8.9088C47.9183 8.96708 48.0953 8.95647 48.2262 8.87697C48.3605 8.79833 48.4516 8.66752 48.4994 8.48453L49.0996 6.18884L49.7883 6.36889L49.1738 8.71948C49.0772 9.08879 48.8755 9.35062 48.5686 9.50497C48.2616 9.65932 47.9119 9.68518 47.5193 9.58254Z" fill="white"/><path d="M52.7203 11.3504L52.5412 9.91228L52.0427 9.70044L51.5525 10.8541L50.8973 10.5757L52.3095 7.25243L53.6388 7.81732C53.9458 7.94779 54.1612 8.16636 54.285 8.47303C54.4087 8.77971 54.4061 9.08497 54.2769 9.38881C54.1895 9.59453 54.0496 9.76113 53.8572 9.88861C53.6661 10.0129 53.4552 10.0784 53.2245 10.0849L53.4277 11.651L52.7203 11.3504ZM52.7044 8.14327L52.2868 9.126L52.961 9.41248C53.0844 9.46493 53.2106 9.46251 53.3396 9.40522C53.4699 9.34477 53.5639 9.24649 53.6218 9.1104C53.6796 8.9743 53.6844 8.83995 53.6361 8.70734C53.5879 8.57473 53.502 8.4822 53.3786 8.42975L52.7044 8.14327Z" fill="white"/><path d="M57.3529 13.3892C56.8537 13.5075 56.3809 13.4305 55.9348 13.1582C55.4886 12.8859 55.204 12.5007 55.0809 12.0026C54.9626 11.5033 55.0405 11.0292 55.3146 10.58C55.5887 10.1309 55.9739 9.84629 56.4702 9.72617C56.9712 9.60491 57.4449 9.68044 57.891 9.95274C58.3372 10.225 58.621 10.6117 58.7422 11.1128C58.8653 11.6109 58.7897 12.0845 58.5156 12.5336C58.2416 12.9827 57.854 13.2679 57.3529 13.3892ZM55.7606 11.8494C55.8368 12.1537 56.0157 12.3918 56.2975 12.5638C56.5793 12.7358 56.873 12.7861 57.1784 12.7146C57.4857 12.6403 57.7289 12.4563 57.908 12.1628C58.0872 11.8692 58.1396 11.5689 58.0652 11.2616C57.9908 10.9544 57.8128 10.7147 57.531 10.5428C57.2492 10.3708 56.9546 10.322 56.6474 10.3963C56.3401 10.4707 56.0969 10.6546 55.9178 10.9482C55.7386 11.2417 55.6863 11.5421 55.7606 11.8494Z" fill="white"/><path d="M62.2739 13.2069C62.5409 13.429 62.6908 13.7059 62.7236 14.0374C62.7564 14.369 62.6639 14.6656 62.4461 14.9273C62.2284 15.1889 61.9535 15.3338 61.6215 15.3617C61.2895 15.3897 60.9901 15.2926 60.7231 15.0704L60.2354 14.6645L59.4765 15.5765L58.9293 15.1211L61.2391 12.3456L62.2739 13.2069ZM61.1488 14.5589C61.2651 14.6557 61.3945 14.6963 61.5372 14.6808C61.682 14.6627 61.804 14.5941 61.9029 14.4752C62.0041 14.3536 62.0494 14.2213 62.0387 14.0782C62.0281 13.9351 61.9646 13.8151 61.8483 13.7183L61.3606 13.3125L60.6611 14.1531L61.1488 14.5589Z" fill="white"/><path d="M63.4232 18.3929L64.4387 19.5263L63.9316 19.9807L62.441 18.3172L65.1303 15.9076L66.6036 17.5519L66.0965 18.0062L65.0982 16.8921L64.5258 17.405L65.438 18.4231L64.9386 18.8706L64.0264 17.8525L63.4232 18.3929Z" fill="white"/><path d="M66.3368 23.3711L66.7594 22.8318L65.9653 21.6315L65.3037 21.8094L64.8796 21.1684L68.5884 20.2301L69.0751 20.9657L66.7638 24.0164L66.3368 23.3711ZM66.6455 21.4536L67.1919 22.2796L68.1491 21.0526L66.6455 21.4536Z" fill="white"/><path d="M71.7049 25.8457L72.007 26.4902L68.7376 28.0229L68.5077 27.5324L69.8499 25.1941L67.8508 26.1312L67.5487 25.4867L70.8181 23.954L71.048 24.4445L69.7105 26.7806L71.7049 25.8457Z" fill="white"/><path d="M69.9794 31.7817L70.5394 31.387L70.1248 30.0088L69.4399 29.9886L69.2185 29.2526L73.0404 29.4225L73.2945 30.2672L70.2023 32.5226L69.9794 31.7817ZM70.8274 30.0345L71.1127 30.9829L72.3828 30.0836L70.8274 30.0345Z" fill="white"/><path d="M73.7057 39.9906C73.7057 40.4858 73.532 40.8985 73.1847 41.2286C72.8374 41.5622 72.4092 41.729 71.9003 41.729C71.3913 41.729 70.9632 41.5622 70.6158 41.2286C70.2685 40.8985 70.0948 40.4858 70.0948 39.9906V38.5566H73.7057V39.9906ZM70.7758 39.9906C70.7758 40.3036 70.8789 40.5581 71.0853 40.7541C71.295 40.9501 71.5667 41.0481 71.9003 41.0481C72.2339 41.0481 72.5038 40.9501 72.7101 40.7541C72.9199 40.5581 73.0248 40.3036 73.0248 39.9906V39.2685H70.7758V39.9906Z" fill="white"/><path d="M71.4039 44.4854L71.1823 45.9909L70.5087 45.8918L70.8339 43.682L74.4063 44.2078L74.0848 46.392L73.4111 46.2929L73.629 44.8129L72.8686 44.701L72.6695 46.0534L72.0061 45.9557L72.2051 44.6033L71.4039 44.4854Z" fill="white"/><path d="M70.7005 56.1995L70.0839 55.9105L70.4977 55.0278L67.8448 53.7841L68.147 53.1396L70.7999 54.3832L71.2115 53.5051L71.828 53.7942L70.7005 56.1995Z" fill="white"/><path d="M68.9334 59.1514L68.5406 59.7451L65.5291 57.7527L65.9219 57.159L68.9334 59.1514Z" fill="white"/><path d="M65.1284 63.9976L64.6534 64.5278L61.9641 62.1182L62.3256 61.7148L65.0026 62.0356L63.3583 60.5623L63.8333 60.0321L66.5226 62.4417L66.1611 62.8451L63.488 62.5278L65.1284 63.9976Z" fill="white"/><path d="M60.2568 64.5631L59.0872 65.5365L58.6516 65.0132L60.3684 63.5844L62.6782 66.3599L60.9812 67.7721L60.5456 67.2488L61.6955 66.2918L61.2038 65.7011L60.1531 66.5755L59.7242 66.06L60.7749 65.1856L60.2568 64.5631Z" fill="white"/><path d="M55.2 67.2781L56.4739 67.9692L56.9362 67.687L56.2832 66.617L56.8908 66.2462L58.7719 69.3284L57.539 70.0808C57.2543 70.2546 56.9512 70.3026 56.6297 70.2248C56.3083 70.147 56.0616 69.9672 55.8896 69.6854C55.7732 69.4946 55.7191 69.2839 55.7274 69.0532C55.7375 68.8255 55.807 68.6159 55.9359 68.4244L54.544 67.6785L55.2 67.2781ZM57.8176 69.1312L57.2613 68.2198L56.6361 68.6014C56.5216 68.6712 56.4501 68.7753 56.4217 68.9135C56.395 69.0547 56.4202 69.1883 56.4973 69.3146C56.5743 69.4408 56.6808 69.5229 56.8167 69.5608C56.9526 69.5987 57.0779 69.5827 57.1923 69.5128L57.8176 69.1312Z" fill="white"/><path d="M52.2897 69.4756L50.8892 70.0708L50.6229 69.4441L52.6785 68.5705L54.0908 71.8938L52.0588 72.7572L51.7925 72.1306L53.1693 71.5455L52.8687 70.8381L51.6106 71.3728L51.3483 70.7556L52.6064 70.221L52.2897 69.4756Z" fill="white"/><path d="M46.9989 74.2632L46.8267 73.6044L47.7699 73.3578L47.0289 70.5232L47.7176 70.3431L48.4587 73.1778L49.3969 72.9325L49.5691 73.5913L46.9989 74.2632Z" fill="white"/><path d="M38.3725 71.317C38.7299 71.3301 39.0277 71.4201 39.2659 71.5871C39.504 71.7576 39.6679 71.9821 39.7575 72.2606L39.1362 72.5941C39.0087 72.2212 38.7388 72.0273 38.3264 72.0122C38.1271 72.0049 37.9797 72.0357 37.8843 72.1044C37.7889 72.1732 37.7391 72.2626 37.7351 72.3726C37.7305 72.4997 37.7836 72.5997 37.8945 72.6726C38.0053 72.7489 38.2052 72.8337 38.4943 72.9268C38.6541 72.9808 38.7898 73.034 38.9014 73.0862C39.0096 73.1384 39.119 73.206 39.2295 73.2892C39.3365 73.3757 39.4169 73.4819 39.4708 73.6077C39.5247 73.7336 39.5486 73.879 39.5426 74.0439C39.5307 74.3704 39.4061 74.6257 39.1688 74.8097C38.9279 74.9971 38.6443 75.0848 38.3178 75.0728C38.0257 75.0622 37.7723 74.9806 37.5576 74.8283C37.3394 74.6792 37.1731 74.4752 37.0586 74.2164L37.6692 73.8929C37.8023 74.2075 38.0269 74.3705 38.343 74.3821C38.4908 74.3875 38.6089 74.3574 38.6973 74.2918C38.7822 74.2295 38.8266 74.1451 38.8305 74.0386C38.8346 73.9252 38.7916 73.8307 38.7015 73.7551C38.6078 73.6829 38.4284 73.6006 38.1633 73.5083C38.0546 73.4699 37.9732 73.4394 37.9189 73.4168C37.8611 73.3975 37.7849 73.3654 37.6902 73.3207C37.5919 73.2792 37.5176 73.2404 37.4673 73.2041C37.4136 73.1678 37.3534 73.1191 37.2868 73.0582C37.2202 72.9972 37.1709 72.9352 37.1387 72.8721C37.1032 72.8089 37.075 72.7321 37.0542 72.6419C37.0299 72.555 37.0196 72.46 37.0234 72.3569C37.0356 72.0235 37.1672 71.7634 37.4184 71.5764C37.6661 71.3893 37.9841 71.3028 38.3725 71.317Z" fill="white"/><path d="M37.9976 70.7863L38.4366 69.3674L38.9779 69.3872L38.7193 70.8127L37.9976 70.7863Z" fill="white"/><path d="M33.3917 74.4728L32.6917 74.3435L33.3475 70.7927L34.0476 70.922L33.3917 74.4728Z" fill="white"/><path d="M22.6778 69.93L23.9623 70.5904L24.3539 69.8289L23.1061 69.1874L23.4174 68.5818L24.6652 69.2233L25.302 67.9847L25.9351 68.3102L24.2841 71.5215L22.3665 70.5356L22.6778 69.93Z" fill="white"/><path d="M20.518 64.995L20.316 65.6497L21.4865 66.4871L22.0408 66.0846L22.6659 66.5318L19.5371 68.7331L18.8197 68.2199L19.8887 64.5448L20.518 64.995ZM20.9147 66.8962L20.1092 66.3199L19.6535 67.8079L20.9147 66.8962Z" fill="white"/><path d="M13.9697 63.9743L16.4759 61.3748L16.9846 61.8653L15.3592 63.5513L17.2543 63.0497L17.3138 63.107L16.8853 65.0155L18.5072 63.3333L19.0196 63.8273L16.5134 66.4268L15.9861 65.9184L16.4248 63.9696L14.497 64.4827L13.9697 63.9743Z" fill="white"/><path d="M11.9349 61.5303L11.4998 60.9668L14.3578 58.76L14.7929 59.3234L11.9349 61.5303Z" fill="white"/><path d="M11.6517 55.8565L10.9776 54.6555L11.5714 54.3222L12.5939 56.144L9.44502 57.9113L9.09663 57.2905L11.6517 55.8565Z" fill="white"/><path d="M6.89024 52.6499L6.63594 51.985L10.0085 50.6951L10.2628 51.36L6.89024 52.6499Z" fill="white"/><path d="M5.38997 47.7545L5.23519 47.0596L8.75966 46.2745L8.91444 46.9694L5.38997 47.7545Z" fill="white"/><path fill-rule="evenodd" clip-rule="evenodd" d="M39.5948 68.371C55.1449 68.371 67.7508 55.7651 67.7508 40.2149C67.7508 24.6648 55.1449 12.0588 39.5948 12.0588C24.0446 12.0588 11.4387 24.6648 11.4387 40.2149C11.4387 55.7651 24.0446 68.371 39.5948 68.371ZM53.0064 28.1685L51.1946 29.775C44.5514 22.5336 34.346 23.5923 28.4167 30.0667C22.9865 35.996 23.1271 44.5997 28.4167 50.6548C34.1694 57.24 44.5514 58.2767 50.7728 51.8955L45.7301 47.0694C41.3226 50.0804 37.0523 50.3052 33.5839 47.0694C31.5155 45.1397 30.7525 43.4786 30.7557 40.4008C30.7593 36.9561 32.2608 34.3138 34.8684 32.5975C38.4158 30.2628 42.3827 30.5115 45.7301 33.1248C48.522 35.3044 49.1931 38.2 49.3155 41.4556H32.4433C32.6328 43.127 33.1018 43.7049 34.0248 44.8302C36.9238 48.3645 41.4656 48.6607 45.7301 44.8302L53.5337 51.8955C45.7301 60.7537 33.9634 59.8709 26.9594 52.2119C20.6229 45.2828 20.5907 35.068 26.9594 28.1685C34.0248 20.9974 43.8323 19.4157 53.0064 28.1685ZM45.7301 35.8666C42.9412 32.2447 36.8955 32.3092 34.0248 35.8666C33.0637 37.0575 32.6106 37.9963 32.4433 39.452H47.2065C46.9873 38.0369 46.654 37.0664 45.7301 35.8666Z" fill="white"/><path d="M30.1156 10.5063L30.2124 11.9884L29.6998 12.1633L29.4321 10.7395L30.1156 10.5063Z" fill="white"/><path d="M73.8692 28.8235C73.8692 28.8235 73.6322 29.3213 73.721 29.6284C73.7992 29.8988 74.1778 30.186 74.1778 30.186" stroke="white" stroke-width="0.429864"/></svg>