<?xml version="1.0" standalone="no"?>
<!DOCTYPE svg PUBLIC "-//W3C//DTD SVG 20010904//EN"
 "http://www.w3.org/TR/2001/REC-SVG-20010904/DTD/svg10.dtd">
<svg version="1.0" xmlns="http://www.w3.org/2000/svg"
 width="552.000000pt" height="552.000000pt" viewBox="0 0 552.000000 552.000000"
 preserveAspectRatio="xMidYMid meet">
<metadata>
Created by potrace 1.14, written by Peter Selinger 2001-2017
</metadata>
<g transform="translate(0.000000,552.000000) scale(0.100000,-0.100000)"
fill="#000000" stroke="none">
<path d="M2515 5299 c-616 -63 -1168 -331 -1590 -770 -383 -399 -618 -889
-697 -1449 -17 -122 -17 -515 0 -635 53 -374 180 -734 362 -1025 483 -774
1341 -1236 2240 -1206 389 12 724 96 1061 262 503 250 908 656 1154 1159 124
252 194 477 237 750 29 186 31 539 5 720 -65 442 -228 838 -495 1195 -111 148
-344 381 -492 492 -354 264 -749 429 -1185 494 -122 18 -476 26 -600 13z m396
-909 c253 -25 505 -119 739 -275 107 -71 237 -175 290 -230 l35 -36 -50 -45
c-27 -24 -65 -56 -82 -70 l-33 -26 -85 80 c-190 181 -441 308 -695 353 -109
20 -354 17 -465 -5 -454 -90 -839 -379 -1040 -784 -110 -219 -156 -465 -134
-706 58 -640 526 -1162 1169 -1302 67 -15 127 -19 285 -19 184 0 208 2 308 28
228 57 453 180 583 319 l32 33 -226 216 -226 216 -51 -32 c-75 -48 -202 -109
-275 -133 -106 -35 -160 -43 -267 -44 -218 0 -382 79 -566 271 -145 153 -197
293 -197 530 0 255 62 425 217 591 189 202 470 308 716 270 330 -50 601 -278
696 -585 25 -79 51 -237 51 -307 l0 -48 -761 0 -762 0 6 -51 c17 -141 180
-346 345 -432 100 -52 172 -70 282 -70 162 0 328 61 479 178 36 28 72 54 78
58 9 5 133 -101 363 -309 192 -175 350 -320 350 -324 0 -4 -52 -57 -115 -118
-277 -267 -607 -421 -967 -452 -438 -37 -892 128 -1228 447 -267 254 -432 548
-502 896 -32 159 -32 423 0 584 68 342 242 652 495 881 234 213 479 349 748
416 169 42 294 52 460 36z"/>
<path d="M2691 3390 c-204 -28 -375 -137 -484 -306 -48 -76 -73 -134 -86 -206
l-8 -48 667 0 667 0 -8 48 c-36 191 -160 358 -330 440 -46 23 -110 48 -141 56
-76 20 -199 26 -277 16z"/>
</g>
</svg>
