<svg width="20" height="20" viewBox="0 0 20 20" fill="none" xmlns="http://www.w3.org/2000/svg">
<path d="M11.067 10.4422L4.81705 16.6922C4.69977 16.8095 4.54071 16.8754 4.37486 16.8754C4.20901 16.8754 4.04995 16.8095 3.93267 16.6922C3.8154 16.575 3.74951 16.4159 3.74951 16.25C3.74951 16.0842 3.8154 15.9251 3.93267 15.8079L9.74127 10L3.93267 4.19223C3.8154 4.07495 3.74951 3.91589 3.74951 3.75004C3.74951 3.58419 3.8154 3.42513 3.93267 3.30785C4.04995 3.19058 4.20901 3.12469 4.37486 3.12469C4.54071 3.12469 4.69977 3.19058 4.81705 3.30785L11.067 9.55785C11.1252 9.6159 11.1713 9.68483 11.2027 9.7607C11.2342 9.83658 11.2504 9.91791 11.2504 10C11.2504 10.0822 11.2342 10.1635 11.2027 10.2394C11.1713 10.3153 11.1252 10.3842 11.067 10.4422ZM17.317 9.55785L11.067 3.30785C10.9498 3.19058 10.7907 3.12469 10.6249 3.12469C10.459 3.12469 10.2999 3.19058 10.1827 3.30785C10.0654 3.42513 9.99951 3.58419 9.99951 3.75004C9.99951 3.91589 10.0654 4.07495 10.1827 4.19223L15.9913 10L10.1827 15.8079C10.0654 15.9251 9.99951 16.0842 9.99951 16.25C9.99951 16.4159 10.0654 16.575 10.1827 16.6922C10.2999 16.8095 10.459 16.8754 10.6249 16.8754C10.7907 16.8754 10.9498 16.8095 11.067 16.6922L17.317 10.4422C17.3752 10.3842 17.4213 10.3153 17.4527 10.2394C17.4842 10.1635 17.5004 10.0822 17.5004 10C17.5004 9.91791 17.4842 9.83658 17.4527 9.7607C17.4213 9.68483 17.3752 9.6159 17.317 9.55785Z" fill="#FCE8C3"/>
</svg>
